<svg xmlns="http://www.w3.org/2000/svg" viewBox="0 0 1006.52 267.03"><defs><style>.cls-1{fill:#2a2a2a;}</style></defs><g id="Layer_2" data-name="Layer 2"><g id="Layer_1-2" data-name="Layer 1"><path class="cls-1" d="M0,198.9c1.56-3.78,4-6.41,8.38-6.74.43,0,1.08-1.23,1.12-1.91.24-4.27-.06-8.61.56-12.81a24.69,24.69,0,0,1,23.71-20.93c3.44-.13,6.88-.13,10.32-.25a10.07,10.07,0,0,0,2.1-.52,11.42,11.42,0,0,0-1-1.88,51,51,0,0,0-24.81-16.8c-4-1.27-6.25-4.26-6.3-7.94s2.26-6.75,6.36-8.2l1.84-.64a48,48,0,0,0,24.28-18c11.7-16.75,13.19-34.51,4.68-53.14-.9-2-1.83-4.24-1.71-6.32.34-6,6.41-8.89,12.21-6.56,5.48,2.19,11.07,4.58,16.83,5.52A50.31,50.31,0,0,0,134,8.54c.4-1.15.71-2.33,1.2-3.43a8.24,8.24,0,0,1,15.25,0c.67,1.53,1.1,3.17,1.7,4.73a51,51,0,0,0,70.2,27.42c2-1,4.42-1.94,6.55-1.78,6.18.48,9.14,6.67,6.18,12.53a51.88,51.88,0,0,0-5.91,23,51.07,51.07,0,0,0,35.11,49.54c.53.18,1.06.35,1.58.55a8.34,8.34,0,0,1,5.77,7.76,8.14,8.14,0,0,1-5.87,8,52.56,52.56,0,0,0-21.37,12.69c-1.38,1.38-2.67,2.86-3.92,4.35a9.18,9.18,0,0,0-.94,1.88,9.59,9.59,0,0,0,1.85.45c3,.11,5.95.18,8.92.22,15.09.21,25.72,10.92,25.81,26,0,2.71-.08,5.41.08,8.11a2.3,2.3,0,0,0,1.46,1.6c5.41,1.08,7.93,4,7.94,9.4q0,16.78,0,33.55c0,6.18-3.32,9.51-9.46,9.51q-50.64,0-101.28,0c-2.19,0-3.15.56-3.93,2.72a29.91,29.91,0,0,1-56.32-.29c-.71-2-1.66-2.42-3.57-2.42-33.39.05-66.77,0-100.16.1-5.28,0-9-1.64-10.89-6.7Zm80.52-68.43c.6-5.09.76-8.75,1.51-12.28,5.35-25.32,20.27-42.41,45.28-48.95,24.64-6.44,46.17.52,62.71,20,14.31,16.86,18.09,36.49,11.88,57.83-.69,2.36-.18,3.06,2.07,3.49,4.74.89,9.45,2,14.15,3.06,1.78.41,2.8,0,3.77-1.73a63.51,63.51,0,0,1,19.64-21.4c1.79-1.22,1.69-1.72,0-3-22.47-16.85-31.85-39.23-27.87-67.11.32-2.29-.2-2.66-2.38-2.34-27.71,4-50-5.36-66.79-27.75-1.62-2.17-2.13-1.53-3.33.16A66.06,66.06,0,0,1,110.9,54.3a65.37,65.37,0,0,1-36.37,3.79c-2.37-.42-2.89.15-2.48,2.49A58.55,58.55,0,0,1,73,70q.32,36.07-28.76,57.47c-1.55,1.14-2.07,1.71-.12,3a63.88,63.88,0,0,1,19.79,21.62c.85,1.49,1.74,1.92,3.33,1.56,5.07-1.16,10.14-2.28,15.24-3.3,1.8-.36,1.8-1.09,1.44-2.72C82.58,141.53,81.47,135.33,80.52,130.47ZM217.88,228c16.18,0,32.36,0,48.54,0,2.07,0,2.72-.51,2.64-2.62-.16-4.56-.18-9.14,0-13.69.09-2.35-.61-2.93-2.92-2.93q-45.33.12-90.66,0a36.91,36.91,0,0,0-26,10.27c-4.52,4.22-8.69,4.2-13.23,0a36.93,36.93,0,0,0-26.06-10.24q-15.19,0-30.4,0c-20.08,0-40.17,0-60.25-.06-2.36,0-3,.66-2.89,3,.18,4.37.23,8.76,0,13.13-.15,2.65.78,3.17,3.25,3.16Q67,228,114.13,228c8.43,0,13.28,3.72,15.58,11.91,1.8,6.42,6.87,10.45,13.15,10.44s11.32-4,13.12-10.47c2.3-8.18,7.14-11.88,15.6-11.88Zm-29.21-98.9c-.56-27.92-24.74-48.7-52.7-44.94C109,87.82,91,116.85,99.64,142.63c.53,1.58,1,2.17,2.89,1.73,15.14-3.48,28.09.53,38.69,11.92,1.18,1.26,1.75,1.64,3.16.11,10.63-11.49,23.65-15.57,38.91-12,1.79.42,2.37-.09,2.68-1.64Q187.31,135.94,188.67,129.14Zm25.86,63.12c14.12,0,28.25,0,42.37,0,2,0,2.88-.43,2.67-2.6-.19-1.93,0-3.9,0-5.86,0-7.74-2.88-10.32-10.48-10.83-11.29-.75-22.68-1.27-33.78-3.3-11.91-2.17-23.57-5.8-35.25-9.1a22.53,22.53,0,0,0-28.86,21.3c0,4.56.07,9.12,0,13.68-.05,2.06.58,2.1,2.21,1.36a54.68,54.68,0,0,1,23.29-4.7C189.25,192.29,201.89,192.26,214.53,192.26Zm-80-4.24v-4.75c0-16.89-14.51-27.36-30.5-22.13-4.5,1.48-9,2.92-13.55,4.22a209.12,209.12,0,0,1-55.28,7.76c-5.62.06-9,3.49-9,9.08q0,3.08,0,6.15c.07,4.51-.59,3.89,3.77,3.9,24.72,0,49.44.1,74.16,0,9.94-.05,19.68.6,28.82,5,1.17.55,1.67.34,1.64-1C134.49,193.42,134.54,190.72,134.54,188Z"/><path class="cls-1" d="M432.82,119c0,2.75-1.61,3.66-3.59,2l-2.17-1.1a27,27,0,0,0-12.37-2.78,29.35,29.35,0,0,0-15.95,4.37,31.18,31.18,0,0,0-11,11.91,37.91,37.91,0,0,0,0,34,31,31,0,0,0,11.06,11.91,29.42,29.42,0,0,0,15.88,4.37,26.42,26.42,0,0,0,12.44-2.91l2.21-1.16c2-1.69,3.61-1.77,3.61-.16s2.25,2.91,5,2.91h7.21a5,5,0,0,0,5-5V91.73a5,5,0,0,0-5-5h-7.34a5,5,0,0,0-5,5Zm-6.68,46.53a16.27,16.27,0,0,1-8.54,2.18,16.07,16.07,0,0,1-8.34-2.18,14.94,14.94,0,0,1-5.75-6.09,19.16,19.16,0,0,1-2.06-9.06,18.5,18.5,0,0,1,2.06-8.87,15.66,15.66,0,0,1,5.69-6.09,15.88,15.88,0,0,1,8.53-2.25,16.09,16.09,0,0,1,8.41,2.18,15.27,15.27,0,0,1,5.69,6.09,18.89,18.89,0,0,1,2.05,8.94,19.16,19.16,0,0,1-2.05,9.06A15.21,15.21,0,0,1,426.14,165.55Z"/><path class="cls-1" d="M510.78,121.55c0,1.68-1.68,1.55-3.73-.28,0,0-.1-.09-2.49-1.32a26.69,26.69,0,0,0-12.31-2.78,29.17,29.17,0,0,0-15.75,4.37,30.43,30.43,0,0,0-11,11.91,38.43,38.43,0,0,0,0,34,30.43,30.43,0,0,0,11,11.91,29.17,29.17,0,0,0,15.75,4.37,26.11,26.11,0,0,0,12.31-2.85c2.39-1.25,2.49-1.34,2.49-1.34,2.05-1.83,3.73-1.94,3.73-.23s2.25,3.1,5,3.1H523a5,5,0,0,0,5-5V123.5a5,5,0,0,0-5-5h-7.2C513,118.5,510.78,119.87,510.78,121.55ZM507.2,162.9a15.34,15.34,0,0,1-11.78,4.83,16,16,0,0,1-8.4-2.18,15.14,15.14,0,0,1-5.69-6.09,19.16,19.16,0,0,1-2.05-9.06,18.89,18.89,0,0,1,2.05-8.94,15.2,15.2,0,0,1,5.69-6.09,16.08,16.08,0,0,1,8.4-2.18,16.34,16.34,0,0,1,8.54,2.18,15.2,15.2,0,0,1,5.69,6.09,18.89,18.89,0,0,1,2.05,8.94Q511.7,158.07,507.2,162.9Z"/><rect class="cls-1" x="543.34" y="118.5" width="17.47" height="63.93" rx="5"/><path class="cls-1" d="M552.07,88.32a9.28,9.28,0,0,0-7,2.91,10.33,10.33,0,0,0,0,14.1,10.16,10.16,0,0,0,14.09,0,10.5,10.5,0,0,0,0-14.1A9.24,9.24,0,0,0,552.07,88.32Z"/><rect class="cls-1" x="576.16" y="86.73" width="17.34" height="95.69" rx="5"/><path class="cls-1" d="M637.39,154.39c-1,2.58-2.51,2.57-3.44,0L622.72,123.2a7.66,7.66,0,0,0-6.7-4.7h-8.79c-2.75,0-4.14,2.08-3.08,4.62l20.4,49.19a13,13,0,0,1-.22,9.14l-11,23.19c-1.18,2.49.11,4.52,2.86,4.52h8.4a8.36,8.36,0,0,0,7-4.57l7.6-17.2c1.11-2.51,2.93-6.63,4-9.14l24.41-55.18c1.11-2.51-.23-4.57-3-4.57H655.8a7.78,7.78,0,0,0-6.75,4.68Z"/><path class="cls-1" d="M749.4,119c0,2.75-1.61,3.66-3.58,2l-2.17-1.1a27.1,27.1,0,0,0-12.38-2.78,29.37,29.37,0,0,0-15.95,4.37,31.08,31.08,0,0,0-11,11.91,37.83,37.83,0,0,0,0,34,30.87,30.87,0,0,0,11,11.91,29.45,29.45,0,0,0,15.88,4.37,26.39,26.39,0,0,0,12.44-2.91l2.21-1.16c2-1.69,3.62-1.76,3.62-.16s2.25,2.91,5,2.91h7.2a5,5,0,0,0,5-5V91.73a5,5,0,0,0-5-5H754.4a5,5,0,0,0-5,5Zm-6.68,46.53a16.24,16.24,0,0,1-8.54,2.18,16,16,0,0,1-8.33-2.18,15,15,0,0,1-5.76-6.09A19.16,19.16,0,0,1,718,150.4a18.49,18.49,0,0,1,2.05-8.87,15.74,15.74,0,0,1,5.69-6.09,15.91,15.91,0,0,1,8.54-2.25,16.08,16.08,0,0,1,8.4,2.18,15.2,15.2,0,0,1,5.69,6.09,18.89,18.89,0,0,1,2.05,8.94,19.16,19.16,0,0,1-2.05,9.06A15.14,15.14,0,0,1,742.72,165.55Z"/><path class="cls-1" d="M790.83,88.32a9.28,9.28,0,0,0-7,2.91,10.33,10.33,0,0,0,0,14.1,10.16,10.16,0,0,0,14.09,0,10.5,10.5,0,0,0,0-14.1A9.24,9.24,0,0,0,790.83,88.32Z"/><rect class="cls-1" x="782.1" y="118.5" width="17.47" height="63.93" rx="5"/><path class="cls-1" d="M860.18,121.55c0,1.68-1.68,1.55-3.73-.28,0,0-.09-.09-2.49-1.32a26.66,26.66,0,0,0-12.31-2.78,29.22,29.22,0,0,0-15.75,4.37,30.48,30.48,0,0,0-11,11.91,38.43,38.43,0,0,0,0,34,30.48,30.48,0,0,0,11,11.91,29.22,29.22,0,0,0,15.75,4.37A26.08,26.08,0,0,0,854,180.9c2.4-1.25,2.49-1.34,2.49-1.34,2-1.83,3.73-1.94,3.73-.23s2.25,3.1,5,3.1h7.21a5,5,0,0,0,5-5V123.5a5,5,0,0,0-5-5h-7.21C862.43,118.5,860.18,119.87,860.18,121.55Zm-3.57,41.35a15.36,15.36,0,0,1-11.78,4.83,16,16,0,0,1-8.41-2.18,15.21,15.21,0,0,1-5.69-6.09,19.28,19.28,0,0,1-2.05-9.06,19,19,0,0,1,2.05-8.94,15.27,15.27,0,0,1,5.69-6.09,16.09,16.09,0,0,1,8.41-2.18,16.36,16.36,0,0,1,8.54,2.18,15.27,15.27,0,0,1,5.69,6.09,19,19,0,0,1,2.05,8.94Q861.11,158.07,856.61,162.9Z"/><path class="cls-1" d="M935,118.7a21.67,21.67,0,0,0-8.34-1.53q-10.71,0-16.41,6.82l0,.06a19.13,19.13,0,0,1-.09-2.72c0-1.56-2.25-2.83-5-2.83h-7.34a5,5,0,0,0-5,5v53.93a5,5,0,0,0,5,5h7.34a5,5,0,0,0,5-5V152.09a84.86,84.86,0,0,1,.7-10,11.2,11.2,0,0,1,2.81-5.71,12.28,12.28,0,0,1,9.06-3.51,12.93,12.93,0,0,1,4.7.8l1.37.53c1.18,1,3.62.16,5.43-1.92l4.28-4.9a5.2,5.2,0,0,0-.39-7.16A12.06,12.06,0,0,0,935,118.7Z"/><path class="cls-1" d="M994.23,118.5a7.77,7.77,0,0,0-6.75,4.68l-11.66,31.21c-1,2.58-2.52,2.57-3.45,0L961.14,123.2a7.65,7.65,0,0,0-6.69-4.7h-8.8c-2.75,0-4.13,2.08-3.08,4.62L963,172.31a12.86,12.86,0,0,1-.22,9.14l-11,23.19c-1.17,2.49.11,4.52,2.86,4.52h8.4a8.36,8.36,0,0,0,7-4.57l7.61-17.2,4-9.14,24.41-55.18c1.11-2.51-.23-4.57-3-4.57Z"/></g></g></svg>